# xmcd
#
# Track frame offsets: 
#        150
#        14233
#        30267
#        43067
#        59043
#        74970
#        89626
#        107331
#        124882
#        139756
#
# Disc length: 2102 seconds
#
# Revision: 0
# Processed by: cddbd v1.5.1PL0 Copyright (c) Steve Scherf et al.
# Submitted via: ExactAudioCopy v0.90b4
#
DISCID=9908340a
DTITLE=Kori Rowe - Brighter Side
DYEAR=2004
DGENRE=Country
TTITLE0=We Begin
TTITLE1=Show Me Your Love
TTITLE2=Where Are You Now
TTITLE3=Moment Of Truth
TTITLE4=Movin' On
TTITLE5=Home Again
TTITLE6=You Never Have
TTITLE7=What It Is
TTITLE8=Brighter Side
TTITLE9=There Is You
EXTD=
EXTT0=
EXTT1=
EXTT2=
EXTT3=
EXTT4=
EXTT5=
EXTT6=
EXTT7=
EXTT8=
EXTT9=
PLAYORDER=
